<?xml version="1.0" encoding="utf-8"?>
<!-- Generator: Adobe Illustrator 22.1.0, SVG Export Plug-In . SVG Version: 6.00 Build 0)  -->
<svg version="1.1" id="Layer_1" xmlns="http://www.w3.org/2000/svg" xmlns:xlink="http://www.w3.org/1999/xlink" x="0px" y="0px"
	 viewBox="0 0 24 24" style="enable-background:new 0 0 24 24;" xml:space="preserve">
<style type="text/css">
	.st0{fill:#FFFFFF;}
</style>
<g>
	<g>
		<path class="st0" d="M12,6c-3.3,0-6,2.7-6,6c0,3.3,2.7,6,6,6s6-2.7,6-6C18,8.7,15.3,6,12,6z M12,16.5c-2.5,0-4.5-2-4.5-4.5
			s2-4.5,4.5-4.5s4.5,2,4.5,4.5S14.5,16.5,12,16.5z"/>
		<circle class="st0" cx="18" cy="5.2" r="1.5"/>
		<path class="st0" d="M12,0.8C1.2,0.8,0.8,1.2,0.8,12S1.2,23.2,12,23.2S23.2,22.8,23.2,12S22.8,0.8,12,0.8z M21.1,21.1
			c-1.2,1.2-3.9,1.4-9.1,1.4s-8-0.2-9.1-1.4C1.7,20,1.5,17.3,1.5,12c0-5.3,0.2-8,1.4-9.1C4,1.7,6.7,1.5,12,1.5s8,0.2,9.1,1.4
			c1.2,1.2,1.4,3.9,1.4,9.1C22.5,17.3,22.3,20,21.1,21.1z"/>
		<path class="st0" d="M22.2,1.8C20.6,0.2,17.6,0,12,0C0.8,0,0,0.8,0,12c0,5.6,0.2,8.6,1.8,10.2C3.4,23.8,6.4,24,12,24
			s8.6-0.2,10.2-1.8C23.8,20.6,24,17.6,24,12C24,6.4,23.8,3.4,22.2,1.8z M12,22.5c-5.3,0-8-0.2-9.1-1.4C1.7,20,1.5,17.3,1.5,12
			c0-5.3,0.2-8,1.4-9.1C4,1.7,6.7,1.5,12,1.5s8,0.2,9.1,1.4c1.2,1.2,1.4,3.9,1.4,9.1c0,5.3-0.2,8-1.4,9.1C20,22.3,17.3,22.5,12,22.5
			z"/>
	</g>
	<g>
		<path class="st0" d="M12,6.8c-2.9,0-5.2,2.4-5.2,5.2s2.4,5.2,5.2,5.2s5.2-2.4,5.2-5.2S14.9,6.8,12,6.8z M12,16.5
			c-2.5,0-4.5-2-4.5-4.5s2-4.5,4.5-4.5s4.5,2,4.5,4.5S14.5,16.5,12,16.5z"/>
		<path class="st0" d="M12,6c-3.3,0-6,2.7-6,6c0,3.3,2.7,6,6,6s6-2.7,6-6C18,8.7,15.3,6,12,6z M12,16.5c-2.5,0-4.5-2-4.5-4.5
			s2-4.5,4.5-4.5s4.5,2,4.5,4.5S14.5,16.5,12,16.5z"/>
	</g>
	<g>
		<circle class="st0" cx="18" cy="5.2" r="0.8"/>
		<circle class="st0" cx="18" cy="5.2" r="1.5"/>
	</g>
</g>
</svg>
