<?xml version="1.0" encoding="utf-8"?>
<!-- Generator: Adobe Illustrator 24.2.1, SVG Export Plug-In . SVG Version: 6.00 Build 0)  -->
<svg version="1.1" id="Layer_1" xmlns="http://www.w3.org/2000/svg" xmlns:xlink="http://www.w3.org/1999/xlink" x="0px" y="0px"
	 viewBox="0 0 200 200" style="enable-background:new 0 0 200 200;" xml:space="preserve">
<g>
	<path d="M26.09,82.65L3.61,75.09l2.35-6.99c0.38-1.14,0.85-2.16,1.39-3.04c0.54-0.88,1.18-1.59,1.91-2.12
		c0.74-0.53,1.57-0.85,2.5-0.97c0.93-0.12,1.98,0.02,3.14,0.41c1.76,0.59,3.01,1.52,3.75,2.79c0.74,1.27,1.05,2.73,0.92,4.39
		l11.72-2.43l-1.1,3.26L18.9,72.61l-1.35,4.01l9.49,3.19L26.09,82.65z M15.22,75.83l1.26-3.73c0.59-1.76,0.68-3.22,0.28-4.39
		c-0.41-1.17-1.34-2-2.81-2.49c-1.48-0.5-2.68-0.39-3.58,0.34c-0.9,0.73-1.65,1.97-2.24,3.73l-1.26,3.73L15.22,75.83z"/>
	<path d="M43.65,50.13c-0.89,1.01-1.91,1.75-3.07,2.21c-1.16,0.46-2.4,0.64-3.73,0.55c-1.33-0.09-2.72-0.48-4.16-1.15
		c-1.44-0.67-2.9-1.66-4.37-2.95c-1.43-1.26-2.57-2.55-3.41-3.89c-0.85-1.34-1.39-2.65-1.64-3.94c-0.25-1.29-0.21-2.54,0.1-3.73
		c0.32-1.2,0.92-2.3,1.81-3.32c0.87-1,1.89-1.73,3.05-2.21c1.16-0.48,2.39-0.67,3.7-0.6c1.31,0.08,2.68,0.45,4.12,1.12
		c1.44,0.67,2.87,1.63,4.3,2.89c1.47,1.29,2.63,2.6,3.48,3.95c0.86,1.34,1.41,2.67,1.68,3.98c0.26,1.31,0.24,2.57-0.08,3.78
		C45.12,48.03,44.52,49.14,43.65,50.13z M41.67,48.39c0.59-0.67,0.96-1.43,1.12-2.29c0.16-0.86,0.09-1.76-0.2-2.7
		c-0.29-0.95-0.79-1.92-1.51-2.94c-0.71-1.01-1.64-2.02-2.78-3.02c-1.12-0.99-2.22-1.76-3.3-2.32c-1.08-0.56-2.1-0.92-3.05-1.07
		c-0.96-0.15-1.85-0.09-2.66,0.19c-0.82,0.27-1.52,0.75-2.11,1.42c-0.6,0.69-0.99,1.45-1.15,2.29c-0.16,0.84-0.1,1.72,0.17,2.65
		c0.27,0.93,0.76,1.89,1.45,2.89c0.7,1,1.61,1.99,2.73,2.97c1.14,1,2.26,1.79,3.35,2.37c1.1,0.58,2.13,0.95,3.11,1.12
		c0.98,0.17,1.87,0.12,2.69-0.14C40.35,49.55,41.06,49.08,41.67,48.39z"/>
	<path d="M67.5,32.01c-1.56,0.76-3.13,1.18-4.72,1.26c-1.59,0.08-3.1-0.13-4.55-0.63l0.7-2.68c1.19,0.41,2.44,0.6,3.74,0.57
		c1.3-0.03,2.57-0.35,3.8-0.95c1.47-0.72,2.46-1.59,2.97-2.62c0.51-1.02,0.52-2.03,0.03-3.03c-0.27-0.56-0.61-0.99-0.99-1.29
		c-0.38-0.3-0.82-0.5-1.3-0.61c-0.48-0.11-1.01-0.16-1.58-0.15c-0.57,0.01-1.19,0.03-1.84,0.06l-3.7,0.16
		c-0.65,0.05-1.32,0.05-2,0.01c-0.69-0.04-1.36-0.17-2.02-0.38c-0.66-0.22-1.27-0.55-1.84-1.01c-0.57-0.46-1.05-1.08-1.43-1.86
		c-0.39-0.8-0.58-1.63-0.57-2.5c0.01-0.86,0.2-1.7,0.56-2.51c0.37-0.81,0.91-1.56,1.63-2.26c0.72-0.7,1.59-1.3,2.6-1.79
		c1.34-0.66,2.7-1.01,4.06-1.08c1.36-0.06,2.63,0.11,3.79,0.51l-0.57,2.45c-1-0.29-2.01-0.41-3.03-0.35
		c-1.02,0.05-2.08,0.35-3.18,0.89c-1.23,0.6-2.1,1.36-2.58,2.29c-0.49,0.92-0.49,1.87-0.02,2.85c0.25,0.52,0.58,0.9,0.98,1.15
		c0.4,0.25,0.85,0.42,1.34,0.52c0.49,0.1,1.01,0.13,1.56,0.1c0.55-0.03,1.1-0.05,1.65-0.08l3.62-0.16c0.78-0.06,1.53-0.06,2.27,0
		c0.74,0.06,1.43,0.2,2.07,0.44c0.64,0.24,1.23,0.59,1.77,1.07c0.54,0.47,1,1.1,1.38,1.88c0.41,0.84,0.62,1.72,0.64,2.63
		c0.01,0.9-0.17,1.79-0.55,2.66c-0.38,0.87-0.96,1.69-1.74,2.46C69.65,30.77,68.67,31.44,67.5,32.01z"/>
	<path d="M89.38,24.51L88.03,0.83L102.68,0l0.14,2.53L91.2,3.19l0.42,7.43l9.82-0.56l0.14,2.56l-9.82,0.56l0.49,8.59l11.98-0.68
		l0.15,2.56L89.38,24.51z"/>
	<path d="M117.96,25.6l7.88-22.37l3.48,1.23l-0.23,10.65l-0.18,4l0.14,0.05l2.33-3.24l6.53-8.43l3.48,1.22l-7.88,22.37l-2.73-0.96
		l3.94-11.18c0.19-0.54,0.43-1.17,0.72-1.87c0.29-0.7,0.59-1.41,0.9-2.12s0.61-1.39,0.9-2.06c0.28-0.67,0.53-1.23,0.75-1.69
		l-0.1-0.04l-2.8,3.92l-6.3,7.67l-2.05-0.72l-0.04-9.9l0.24-4.82l-0.07-0.02c-0.12,0.49-0.28,1.09-0.46,1.79
		c-0.18,0.7-0.38,1.42-0.59,2.17c-0.21,0.74-0.43,1.48-0.64,2.21c-0.22,0.73-0.42,1.36-0.61,1.91l-3.94,11.18L117.96,25.6z"/>
	<path d="M145.99,38.69l1.72-1.9l4.37,3.95l12.49-13.8l-4.37-3.95l1.7-1.87l10.99,9.94l-1.7,1.88l-4.37-3.95l-12.49,13.8l4.37,3.95
		l-1.72,1.9L145.99,38.69z"/>
	<path d="M166.73,62.31l21.46-10.1l1.26,2.68l-19.13,9.01l5,10.63l-2.32,1.09L166.73,62.31z"/>
	<path d="M176.18,90.79l23.69-1l0.13,2.96l-21.13,0.89l0.5,11.74l-2.56,0.11L176.18,90.79z"/>
	<path d="M174.29,119.6l22.25,8.2l-2.55,6.92c-0.42,1.13-0.91,2.13-1.47,3c-0.56,0.87-1.22,1.56-1.97,2.07
		c-0.75,0.51-1.59,0.81-2.53,0.9c-0.93,0.09-1.98-0.07-3.13-0.5c-1.74-0.64-2.97-1.61-3.67-2.89c-0.71-1.29-0.97-2.76-0.8-4.42
		l-11.79,2.09l1.19-3.22l11.37-1.9l1.46-3.97l-9.4-3.46L174.29,119.6z M184.95,126.73l-1.36,3.7c-0.64,1.74-0.77,3.2-0.4,4.38
		c0.37,1.18,1.29,2.03,2.73,2.57c1.47,0.54,2.67,0.46,3.59-0.24c0.92-0.7,1.71-1.92,2.35-3.66l1.36-3.7L184.95,126.73z"/>
	<path d="M155.8,151.58c0.92-0.99,1.96-1.69,3.14-2.12c1.17-0.43,2.42-0.57,3.74-0.44c1.33,0.13,2.7,0.56,4.12,1.27
		c1.42,0.72,2.85,1.74,4.28,3.07c1.39,1.3,2.49,2.63,3.3,3.99c0.81,1.36,1.32,2.69,1.52,3.99c0.21,1.3,0.14,2.54-0.21,3.73
		c-0.35,1.19-0.98,2.28-1.9,3.27c-0.9,0.97-1.94,1.68-3.11,2.12c-1.17,0.44-2.41,0.61-3.72,0.49c-1.31-0.12-2.67-0.53-4.08-1.24
		c-1.41-0.71-2.82-1.71-4.21-3.01c-1.43-1.33-2.55-2.68-3.37-4.05c-0.82-1.37-1.34-2.71-1.56-4.02c-0.23-1.31-0.16-2.57,0.19-3.78
		C154.27,153.64,154.9,152.55,155.8,151.58z M157.73,153.38c-0.61,0.65-1,1.4-1.19,2.26c-0.18,0.85-0.14,1.75,0.12,2.71
		c0.26,0.95,0.74,1.95,1.42,2.98c0.68,1.03,1.58,2.07,2.69,3.1c1.09,1.02,2.17,1.82,3.23,2.42s2.07,0.98,3.02,1.16
		c0.95,0.18,1.84,0.14,2.67-0.11c0.83-0.25,1.54-0.7,2.15-1.35c0.62-0.67,1.03-1.42,1.21-2.26c0.18-0.83,0.15-1.72-0.09-2.66
		c-0.25-0.94-0.7-1.91-1.37-2.93c-0.67-1.02-1.55-2.03-2.64-3.05c-1.11-1.03-2.21-1.86-3.29-2.47c-1.08-0.61-2.1-1.01-3.07-1.21
		c-0.97-0.2-1.87-0.18-2.7,0.06C159.08,152.26,158.36,152.71,157.73,153.38z"/>
	<path d="M131.44,169.02c1.58-0.72,3.16-1.09,4.75-1.12s3.1,0.22,4.53,0.76l-0.78,2.66c-1.18-0.44-2.42-0.67-3.72-0.67
		c-1.3-0.01-2.57,0.27-3.83,0.84c-1.49,0.68-2.51,1.52-3.04,2.53c-0.53,1.01-0.57,2.02-0.12,3.03c0.26,0.57,0.58,1.01,0.95,1.32
		c0.38,0.31,0.81,0.52,1.28,0.65c0.48,0.13,1.01,0.19,1.58,0.2c0.57,0.01,1.19,0.01,1.84,0l3.71-0.05c0.65-0.03,1.32-0.02,2,0.04
		c0.69,0.06,1.36,0.2,2.01,0.44c0.65,0.23,1.25,0.59,1.81,1.06s1.02,1.11,1.38,1.9c0.37,0.81,0.54,1.65,0.5,2.51
		c-0.03,0.86-0.25,1.69-0.64,2.49c-0.39,0.8-0.96,1.54-1.69,2.22c-0.74,0.68-1.62,1.25-2.65,1.72c-1.36,0.62-2.72,0.94-4.09,0.96
		c-1.36,0.02-2.62-0.18-3.77-0.61l0.64-2.43c0.99,0.32,2,0.46,3.02,0.44c1.02-0.03,2.09-0.29,3.21-0.8c1.25-0.57,2.13-1.3,2.65-2.21
		c0.52-0.91,0.55-1.86,0.1-2.84c-0.24-0.53-0.56-0.92-0.95-1.18c-0.39-0.26-0.83-0.44-1.32-0.55c-0.49-0.11-1.01-0.16-1.56-0.15
		c-0.55,0.01-1.1,0.02-1.65,0.03l-3.63,0.06c-0.78,0.04-1.53,0.01-2.27-0.06c-0.73-0.08-1.42-0.24-2.05-0.5
		c-0.63-0.25-1.21-0.63-1.74-1.12c-0.53-0.49-0.97-1.13-1.33-1.92c-0.39-0.86-0.58-1.74-0.56-2.64c0.01-0.9,0.22-1.79,0.63-2.65
		c0.41-0.86,1.01-1.66,1.81-2.41C129.26,170.2,130.25,169.56,131.44,169.02z"/>
	<path d="M109.36,175.89l0.66,23.7L95.35,200l-0.07-2.53l11.64-0.32l-0.21-7.44l-9.83,0.27l-0.07-2.57l9.83-0.27l-0.24-8.6l-12,0.33
		l-0.07-2.57L109.36,175.89z"/>
	<path d="M80.8,173.96l-8.51,22.13l-3.44-1.32l0.53-10.64l0.3-3.99l-0.13-0.05l-2.42,3.17l-6.77,8.24l-3.44-1.32l8.52-22.13
		l2.7,1.04l-4.26,11.07c-0.21,0.54-0.46,1.16-0.77,1.85c-0.31,0.7-0.62,1.39-0.96,2.09c-0.33,0.7-0.65,1.38-0.96,2.03
		c-0.3,0.66-0.57,1.21-0.8,1.67l0.1,0.04l2.91-3.84l6.52-7.48l2.02,0.78l-0.25,9.9L71.31,192l0.07,0.03
		c0.14-0.49,0.31-1.08,0.51-1.78c0.2-0.7,0.42-1.41,0.65-2.15c0.23-0.74,0.47-1.47,0.71-2.19c0.24-0.72,0.46-1.35,0.67-1.89
		l4.26-11.07L80.8,173.96z"/>
	<path d="M53.19,160.1l-1.78,1.85l-4.25-4.08l-12.88,13.44l4.25,4.08l-1.75,1.83l-10.7-10.26l1.75-1.83l4.25,4.08l12.88-13.44
		l-4.25-4.08l1.78-1.85L53.19,160.1z"/>
	<path d="M33.13,135.89l-21.73,9.48l-1.19-2.72l19.38-8.46l-4.7-10.77l2.35-1.03L33.13,135.89z"/>
	<path d="M24.49,107.14l-23.71,0.32l-0.04-2.96l21.15-0.29l-0.16-11.75l2.57-0.03L24.49,107.14z"/>
</g>
</svg>
